# xmcd
#
# Track frame offsets:
#	150
#	13447
#	30895
#	41610
#	58407
#	68410
#	86900
#	103072
#	117610
#	130397
#	148290
#	160705
#
# Disc length: 2293 seconds
#
# Revision: 0
# Processed by: cddbd v1.4PL0 Copyright (c) Steve Scherf et al.
# Submitted via: EasyCDDAExtractor 4.6.9.1
#
DISCID=af08f30c
DTITLE=David Parmley and Continental Divide - There'll Aways Be A Rocking Chair
DYEAR=2000
DGENRE=Bluegrass
TTITLE0=There'll Aways Be A Rocking Chair
TTITLE1=Murder In The First Degree
TTITLE2=40 Years Ago
TTITLE3=No One Here To Love You Now
TTITLE4=Mountain Laurel
TTITLE5=I Never Go Around Mirrors
TTITLE6=Are You Ever Gonna Settle Down
TTITLE7=I've Heard The Wind Blow
TTITLE8=I Ain't Leavin'
TTITLE9=Lord, Don't Give Up On Me
TTITLE10=She's A Country Girl
TTITLE11=Whistle Pig
EXTD=
EXTT0=
EXTT1=
EXTT2=
EXTT3=
EXTT4=
EXTT5=
EXTT6=
EXTT7=
EXTT8=
EXTT9=
EXTT10=
EXTT11=
PLAYORDER=
